<?xml version="1.0" encoding="UTF-8" standalone="no"?>
<!-- Created with Inkscape (http://www.inkscape.org/) -->

<svg
   width="73.91156mm"
   height="19.610521mm"
   viewBox="0 0 73.91156 19.610521"
   version="1.1"
   id="svg1"
   inkscape:version="1.4.4 (dcaf3e7d9e, 2026-05-05)"
   sodipodi:docname="hr-x.svg"
   xmlns:inkscape="http://www.inkscape.org/namespaces/inkscape"
   xmlns:sodipodi="http://sodipodi.sourceforge.net/DTD/sodipodi-0.dtd"
   xmlns="http://www.w3.org/2000/svg"
   xmlns:svg="http://www.w3.org/2000/svg">
  <sodipodi:namedview
     id="namedview1"
     pagecolor="#ffffff"
     bordercolor="#000000"
     borderopacity="0.25"
     inkscape:showpageshadow="2"
     inkscape:pageopacity="0.0"
     inkscape:pagecheckerboard="0"
     inkscape:deskcolor="#d1d1d1"
     inkscape:document-units="mm"
     inkscape:zoom="2.8507295"
     inkscape:cx="138.73642"
     inkscape:cy="60.335433"
     inkscape:window-width="1920"
     inkscape:window-height="1011"
     inkscape:window-x="0"
     inkscape:window-y="0"
     inkscape:window-maximized="1"
     inkscape:current-layer="layer1" />
  <defs
     id="defs1" />
  <g
     inkscape:label="Calque 1"
     inkscape:groupmode="layer"
     id="layer1"
     transform="translate(-17.197416,-70.570353)">
    <path
       style="font-weight:bold;font-size:16.9333px;font-family:Fraunces;-inkscape-font-specification:'Fraunces Bold';text-align:center;letter-spacing:0px;word-spacing:0px;text-anchor:middle;fill:#1b2a41;stroke-width:0.554099;stroke-linecap:round;stroke-linejoin:round;stroke-miterlimit:0"
       d="m 29.130835,81.008693 h 10.488157 v 0.283098 H 29.130835 Z m 2.386123,8.250324 c 0,0.107842 0.04942,0.193227 0.148285,0.256138 0.09886,0.05393 0.238159,0.09886 0.417908,0.134815 l 0.930184,0.148285 c 0.125819,0.01798 0.188733,0.05391 0.188733,0.107842 0,0.03595 -0.01353,0.06291 -0.04044,0.08089 -0.01798,0.01798 -0.05589,0.0414 -0.107842,0.02696 -2.343875,-0.651417 -4.812166,-1.004238 -7.845897,0 -0.05119,0.01694 -0.09437,-0.0089 -0.121328,-0.02696 -0.01798,-0.01798 -0.02696,-0.04493 -0.02696,-0.08089 0,-0.05393 0.06291,-0.08987 0.188734,-0.107842 l 0.930183,-0.148285 c 0.188732,-0.03595 0.328036,-0.08089 0.41791,-0.134815 0.09886,-0.06291 0.148285,-0.148301 0.148285,-0.256138 V 71.895588 c 0,-0.107843 -0.04942,-0.188733 -0.148285,-0.242657 -0.08988,-0.06291 -0.229181,-0.112349 -0.41791,-0.148286 L 25.248335,71.35636 c -0.125818,-0.01798 -0.188734,-0.05842 -0.188734,-0.121328 0,-0.02696 0.0089,-0.04942 0.02696,-0.0674 0.02696,-0.01798 0.0727,-0.05028 0.121328,-0.02696 2.539182,1.217868 5.167649,1.007187 7.845897,0 0.05047,-0.01898 0.08987,0.0089 0.107842,0.02696 0.02696,0.01798 0.04044,0.04044 0.04044,0.0674 0,0.06291 -0.06291,0.103352 -0.188733,0.121328 l -0.930184,0.148285 c -0.179746,0.03595 -0.319047,0.08538 -0.417908,0.148286 -0.09886,0.05393 -0.148285,0.134814 -0.148285,0.242657 z m 10.879104,0 c 0,0.107842 0.04942,0.193227 0.148285,0.256138 0.09886,0.05393 0.238161,0.09886 0.41791,0.134815 l 0.930183,0.148285 c 0.125818,0.01798 0.188734,0.05391 0.188734,0.107842 0,0.03595 -0.01353,0.06291 -0.04044,0.08089 -0.02696,0.01798 -0.06515,0.041 -0.107842,0.02696 -2.615299,-0.86033 -5.230598,-0.811309 -7.845897,0 -0.05151,0.01599 -0.09437,-0.0089 -0.121329,-0.02696 -0.01798,-0.01798 -0.02696,-0.04493 -0.02696,-0.08089 0,-0.05393 0.06291,-0.08987 0.188733,-0.107842 l 0.916702,-0.148285 c 0.197721,-0.03595 0.341518,-0.08089 0.43139,-0.134815 0.09886,-0.06291 0.148285,-0.148301 0.148285,-0.256138 V 71.895588 c 0,-0.107843 -0.04942,-0.188733 -0.148285,-0.242657 -0.08988,-0.06291 -0.233674,-0.112349 -0.43139,-0.148286 L 36.12744,71.35636 c -0.125819,-0.01798 -0.188733,-0.05842 -0.188733,-0.121328 0,-0.02696 0.0089,-0.04942 0.02696,-0.0674 0.02696,-0.01798 0.07133,-0.04718 0.121329,-0.02696 2.55082,1.031663 5.155906,1.195078 7.845897,0 0.04106,-0.01825 0.08089,0.0089 0.107842,0.02696 0.02696,0.01798 0.04044,0.04044 0.04044,0.0674 0,0.06291 -0.06291,0.103352 -0.188734,0.121328 l -0.930183,0.148285 c -0.179746,0.03595 -0.319049,0.08538 -0.41791,0.148286 -0.09886,0.05393 -0.148285,0.134814 -0.148285,0.242657 z m 20.43707,-11.431823 c 0,0.898728 -0.206708,1.712078 -0.620123,2.440048 -0.404427,0.718983 -0.984107,1.321131 -1.739038,1.806443 -0.754932,0.476326 -1.65366,0.808856 -2.696184,0.997588 -0.197721,0.03595 -0.404429,0.06742 -0.620123,0.09437 -0.206708,0.01798 -0.422403,0.03595 -0.647086,0.05393 -0.215694,0.0091 -0.435881,0.01353 -0.660563,0.01353 -0.76392,0 -1.40651,-0.04493 -1.927773,-0.134814 -0.521262,-0.09886 -0.966133,-0.233666 -1.334612,-0.404427 -0.368477,-0.179747 -0.718982,-0.395441 -1.051511,-0.647084 l 0.148285,-0.229176 c 0.287593,0.233669 0.575187,0.422402 0.862778,0.566198 0.296582,0.143795 0.611136,0.247151 0.943666,0.310062 0.332529,0.06291 0.69202,0.09437 1.078474,0.09437 1.042524,0 1.878341,-0.372973 2.507452,-1.118917 0.638097,-0.745945 0.957145,-1.932266 0.957145,-3.558963 0,-1.294169 -0.215694,-2.444541 -0.647084,-3.451117 -0.43139,-1.006575 -1.006576,-1.792962 -1.72556,-2.359161 -0.718983,-0.575186 -1.514357,-0.862779 -2.386123,-0.862779 h -0.87626 v 17.579124 c 0,0.19772 0.04493,0.341516 0.134815,0.431389 0.08988,0.08988 0.233672,0.157281 0.431389,0.202214 l 0.930183,0.148285 c 0.07189,0.0091 0.121329,0.0225 0.148286,0.04044 0.02696,0.0091 0.04044,0.03598 0.04044,0.08089 0,0.06291 -0.05404,0.124226 -0.148285,0.09437 -2.423432,-0.767463 -5.005049,-0.902197 -7.845897,0 -0.04283,0.01353 -0.08088,-0.0089 -0.107842,-0.02696 -0.02696,-0.02696 -0.04044,-0.04942 -0.04044,-0.0674 0,-0.06291 0.06291,-0.103352 0.188733,-0.121328 l 0.930184,-0.148285 c 0.197719,-0.04493 0.341516,-0.112333 0.43139,-0.202215 0.08988,-0.08988 0.134815,-0.233672 0.134815,-0.431388 V 71.895588 c 0,-0.107843 -0.04942,-0.188733 -0.148285,-0.242657 -0.08988,-0.06291 -0.229179,-0.112349 -0.417909,-0.148286 L 46.130284,71.35636 c -0.125818,-0.01798 -0.188733,-0.05842 -0.188733,-0.121328 0,-0.02696 0.01353,-0.04942 0.04044,-0.0674 0.02696,-0.01798 0.06414,-0.03742 0.107843,-0.02696 2.386123,0.571045 4.72036,0.641012 7.15837,0 2.028259,-0.533281 3.680291,0.274111 5.109269,0.822335 1.437965,0.548225 2.543401,1.321131 3.316307,2.318719 0.772906,0.997588 1.15936,2.179416 1.15936,3.545483 z m -8.385134,5.122751 4.421742,-0.498794 3.842063,6.551729 c 0.152791,0.251643 0.314555,0.431389 0.485314,0.539236 0.170758,0.107843 0.368478,0.193227 0.59316,0.256137 0.07189,0.01798 0.121329,0.03145 0.148285,0.04044 0.02696,0.0091 0.04044,0.03598 0.04044,0.08089 0,0.01798 -0.01353,0.04044 -0.04044,0.0674 -0.02696,0.01798 -0.06698,0.04567 -0.107842,0.02696 -2.415441,-1.106747 -4.689586,-0.517934 -6.969637,0 -0.09641,0.02189 -0.148286,-0.03146 -0.148286,-0.09437 0,-0.04493 0.01353,-0.0674 0.04044,-0.0674 0.03595,-0.0091 0.08538,-0.027 0.148285,-0.05393 l 0.444872,-0.121329 c 0.233669,-0.08089 0.386454,-0.184239 0.458351,-0.31006 0.07189,-0.134815 0.02247,-0.350504 -0.148285,-0.647085 z"
       id="text1"
       aria-label="HR"
       sodipodi:nodetypes="cccccscccscsscscccsscccscsscscccssscccsssscscccsscccscsssscccssccccccscccccsscsscscsscccssscsccssscccsssscscccccsccscssscccccc" />
    <path
       style="font-weight:bold;font-size:16.9333px;font-family:Caveat;-inkscape-font-specification:'Caveat Bold';text-align:center;letter-spacing:0px;word-spacing:0px;text-anchor:middle;fill:#00b4c6;stroke-width:0.419997;stroke-linecap:round;stroke-linejoin:round;stroke-miterlimit:0"
       d="m 63.131894,83.521537 c -0.562665,-0.02288 -1.293808,-0.03984 -1.534022,-0.655252 0.292555,-0.842241 1.723562,-0.566165 2.494539,-0.816187 0.926735,-0.01296 1.968776,-0.263393 2.802368,0.263127 0.902346,0.774813 -0.399583,1.214633 -1.094635,1.05025 -0.889015,0.05884 -1.775641,0.167243 -2.66825,0.158062 z m 16.144914,-9.768693 c 0.985691,0.223442 0.746418,1.603091 0.374558,2.26974 -0.424401,0.625918 -0.821367,1.253224 -1.29421,1.838016 -0.768886,0.893084 -1.557082,1.767617 -2.459096,2.528389 -0.563965,0.539526 -1.094597,1.114683 -1.572023,1.707093 -1.885811,1.664841 -3.531259,3.577974 -5.226977,5.431026 -0.202485,0.640319 -1.367792,1.026217 -1.675487,0.398496 -0.300428,-0.893261 0.210578,-1.885622 0.919656,-2.44217 0.691795,-0.663679 1.406606,-1.307057 2.084533,-1.982349 0.575716,-0.797309 1.408863,-1.369316 2.07509,-2.095527 0.730995,-0.700216 1.439115,-1.417476 2.112052,-2.173362 1.500329,-1.490874 2.920351,-3.094458 3.996436,-4.92247 0.145678,-0.289862 0.250907,-0.678744 0.665468,-0.556882 z M 76.395249,87.670165 C 75.207563,87.444089 74.690022,86.218602 74.080883,85.321474 73.04107,83.595168 72.55102,81.610465 72.302819,79.628365 72.110401,79.002211 72.1087,78.462718 72.01226,77.906573 c -0.268008,-1.141774 -0.292222,-2.322431 -0.460488,-3.47933 -0.149117,-0.74873 1.230888,-1.24766 1.669094,-0.511869 0.466095,0.562928 0.335966,1.357219 0.446096,2.019073 0.08579,0.813556 0.132484,1.597993 0.251628,2.396191 0.0031,0.839519 0.37056,1.625528 0.566503,2.435046 0.345841,1.274533 0.652639,2.570061 1.297058,3.736805 0.342718,0.590586 0.76364,1.736047 1.615768,1.457385 0.508286,0.37961 0.483162,1.640292 -0.389581,1.648978 -0.196266,0.06612 -0.40758,0.08941 -0.613089,0.06131 z"
       id="text2"
       aria-label="-X" />
    <path
       style="fill:none;fill-opacity:1;stroke:#000000;stroke-width:1.048;stroke-linecap:round;stroke-linejoin:round;stroke-miterlimit:0;stroke-dasharray:none;stroke-opacity:1"
       d="m 24.956872,71.094374 c 0,0 -4.995679,-0.02558 -5.197499,4.176563 -0.20182,4.202138 3.898124,4.826249 3.898124,4.826249 0,0 -4.17656,1.206565 -5.29031,4.269376 -1.11375,3.062811 -0.46406,5.290312 -0.46406,5.290312"
       id="path2"
       sodipodi:nodetypes="czcsc" />
    <path
       style="fill:none;fill-opacity:1;stroke:#000000;stroke-width:1.0191;stroke-linecap:round;stroke-linejoin:round;stroke-miterlimit:0;stroke-dasharray:none;stroke-opacity:1"
       d="m 79.15461,71.35836 11.444839,8.290169 -9.745997,9.929983"
       id="path3" />
  </g>
</svg>
